<?xml version="1.0" encoding="UTF-8" standalone="no"?>
<!-- Generator: Adobe Illustrator 19.1.0, SVG Export Plug-In . SVG Version: 6.00 Build 0)  -->

<svg
   xmlns:dc="http://purl.org/dc/elements/1.1/"
   xmlns:cc="http://creativecommons.org/ns#"
   xmlns:rdf="http://www.w3.org/1999/02/22-rdf-syntax-ns#"
   xmlns:svg="http://www.w3.org/2000/svg"
   xmlns="http://www.w3.org/2000/svg"
   xmlns:sodipodi="http://sodipodi.sourceforge.net/DTD/sodipodi-0.dtd"
   xmlns:inkscape="http://www.inkscape.org/namespaces/inkscape"
   version="1.1"
   id="Ebene_1"
   x="0px"
   y="0px"
   viewBox="0 0 280.605 160.65"
   xml:space="preserve"
   inkscape:version="0.91 r13725"
   sodipodi:docname="svgFX.svg"
   width="280.60501"
   height="160.64999"
   inkscape:export-filename="C:\Users\Xyanid\Desktop\svgFX.png"
   inkscape:export-xdpi="90.126686"
   inkscape:export-ydpi="90.126686"><metadata
     id="metadata51"><rdf:RDF><cc:Work
         rdf:about=""><dc:format>image/svg+xml</dc:format><dc:type
           rdf:resource="http://purl.org/dc/dcmitype/StillImage" /><dc:title /></cc:Work></rdf:RDF></metadata><defs
     id="defs49" /><sodipodi:namedview
     pagecolor="#ffffff"
     bordercolor="#666666"
     borderopacity="1"
     objecttolerance="10"
     gridtolerance="10"
     guidetolerance="10"
     inkscape:pageopacity="0"
     inkscape:pageshadow="2"
     inkscape:window-width="1920"
     inkscape:window-height="1017"
     id="namedview47"
     showgrid="false"
     inkscape:zoom="2"
     inkscape:cx="109.16322"
     inkscape:cy="86.926365"
     inkscape:window-x="-8"
     inkscape:window-y="-8"
     inkscape:window-maximized="1"
     inkscape:current-layer="Ebene_1"
     fit-margin-top="0"
     fit-margin-left="0"
     fit-margin-right="0"
     fit-margin-bottom="0" /><style
     type="text/css"
     id="style3">
	.st0{display:none;}
	.st1{display:inline;}
	.st2{fill:#3E3D40;}
	.st3{fill:#ACC82E;}
	.st4{fill:#EB7408;}
	.st5{fill:#008DC9;}
</style><g
     class="st0"
     id="g5"
     style="display:none"
     transform="translate(0,-434.64998)"><path
       class="st1"
       d="m 290.5,256.2 0,-1.6 c 0.5,0.4 1.1,0.8 1.8,1 0.7,0.3 1.3,0.4 1.9,0.4 2.4,0 3.5,-1 3.5,-2.9 0,-0.7 -0.3,-1.2 -0.8,-1.7 -0.5,-0.5 -1.4,-1 -2.5,-1.5 -1.4,-0.6 -2.4,-1.3 -3,-1.9 -0.6,-0.7 -0.9,-1.5 -0.9,-2.4 0,-1.2 0.5,-2.2 1.4,-3 0.9,-0.8 2.1,-1.1 3.5,-1.1 1.3,0 2.4,0.3 3.3,0.8 l 0,1.5 c -1.1,-0.7 -2.3,-1.1 -3.5,-1.1 -1,0 -1.8,0.3 -2.4,0.8 -0.6,0.5 -0.9,1.2 -0.9,2 0,0.7 0.2,1.3 0.6,1.7 0.4,0.4 1.2,1 2.5,1.5 1.6,0.7 2.6,1.4 3.2,2 0.6,0.6 0.9,1.4 0.9,2.4 0,1.2 -0.4,2.2 -1.3,3 -0.9,0.8 -2.1,1.2 -3.7,1.2 -1.4,-0.1 -2.6,-0.4 -3.6,-1.1 z"
       id="path7"
       inkscape:connector-curvature="0"
       style="display:inline" /><path
       class="st1"
       d="m 319.5,259.9 c -0.5,1.3 -1.2,2.3 -1.8,3 -0.7,0.7 -1.5,1 -2.6,1 -0.4,0 -0.8,-0.1 -1.2,-0.2 l 0,-1.3 c 0.4,0.1 0.8,0.2 1.2,0.2 1.2,0 2.1,-0.8 2.8,-2.5 l 1.4,-3.3 -5.7,-14.9 1.5,0 4.5,12.2 c 0.1,0.3 0.2,0.5 0.2,0.6 0,0.2 0.1,0.4 0.1,0.5 l 0.1,0 0.4,-1 4.8,-12.3 1.5,0 -7.2,18 z"
       id="path9"
       inkscape:connector-curvature="0"
       style="display:inline" /><path
       class="st1"
       d="m 352.5,256.8 0,-8.7 c 0,-3.6 -1.3,-5.4 -3.9,-5.4 -1.4,0 -2.6,0.5 -3.6,1.6 -0.9,1.1 -1.4,2.4 -1.4,3.9 l 0,8.6 -1.3,0 0,-15 1.3,0 0,2.7 0.1,0 c 1.1,-2.1 2.8,-3.1 5.1,-3.1 1.6,0 2.9,0.5 3.7,1.6 0.9,1.1 1.3,2.6 1.3,4.6 l 0,9.1 -1.3,0 z"
       id="path11"
       inkscape:connector-curvature="0"
       style="display:inline" /><path
       class="st1"
       d="m 381,256.2 c -1.1,0.7 -2.4,1 -4,1 -2,0 -3.7,-0.7 -4.9,-2.1 -1.3,-1.4 -1.9,-3.2 -1.9,-5.5 0,-2.4 0.7,-4.3 2.1,-5.9 1.4,-1.5 3.2,-2.3 5.4,-2.3 1.1,0 2.3,0.2 3.3,0.7 l 0,1.5 c -1.1,-0.7 -2.3,-1 -3.5,-1 -1.8,0 -3.2,0.6 -4.3,1.9 -1.1,1.3 -1.6,2.9 -1.6,4.9 0,1.9 0.5,3.5 1.5,4.7 1,1.2 2.3,1.8 4,1.8 1.5,0 2.8,-0.4 3.9,-1.2 l 0,1.5 z"
       id="path13"
       inkscape:connector-curvature="0"
       style="display:inline" /><path
       class="st1"
       d="m 407.7,256.8 0,-9 c 0,-1.8 -0.3,-3.1 -1,-3.9 -0.6,-0.8 -1.7,-1.2 -3,-1.2 -1.3,0 -2.4,0.5 -3.4,1.5 -1,1 -1.5,2.4 -1.5,4.3 l 0,8.3 -1.3,0 0,-22.2 1.3,0 0,9.9 0.1,0 c 1.2,-2 2.9,-3.1 5.2,-3.1 1.6,0 2.9,0.5 3.7,1.6 0.8,1 1.3,2.5 1.3,4.5 l 0,9.3 -1.4,0 z"
       id="path15"
       inkscape:connector-curvature="0"
       style="display:inline" /><path
       class="st1"
       d="m 433.5,243.2 c -0.4,-0.3 -1,-0.5 -1.6,-0.5 -1.2,0 -2.2,0.6 -3,1.8 -0.8,1.2 -1.2,3 -1.2,5.2 l 0,7 -1.3,0 0,-15 1.3,0 0,3.3 0.1,0 c 0.3,-1.1 0.9,-2 1.6,-2.7 0.7,-0.6 1.6,-1 2.6,-1 0.6,0 1.1,0.1 1.5,0.3 l 0,1.6 z"
       id="path17"
       inkscape:connector-curvature="0"
       style="display:inline" /><path
       class="st1"
       d="m 454.7,257.2 c -2.2,0 -3.9,-0.7 -5.2,-2.2 -1.3,-1.4 -1.9,-3.3 -1.9,-5.6 0,-2.5 0.7,-4.4 2,-5.8 1.3,-1.4 3.1,-2.1 5.3,-2.1 2.1,0 3.8,0.7 5.1,2.1 1.2,1.4 1.9,3.3 1.9,5.8 0,2.3 -0.6,4.2 -1.9,5.7 -1.4,1.4 -3.1,2.1 -5.3,2.1 z m 0.1,-14.5 c -1.8,0 -3.2,0.6 -4.2,1.8 -1.1,1.2 -1.6,2.8 -1.6,5 0,2 0.5,3.5 1.5,4.7 1,1.2 2.4,1.8 4.2,1.8 1.8,0 3.2,-0.6 4.2,-1.8 1,-1.2 1.5,-2.8 1.5,-4.9 0,-2.1 -0.5,-3.8 -1.5,-4.9 -1,-1.1 -2.4,-1.7 -4.1,-1.7 z"
       id="path19"
       inkscape:connector-curvature="0"
       style="display:inline" /><path
       class="st1"
       d="m 488.6,256.8 0,-8.7 c 0,-3.6 -1.3,-5.4 -3.9,-5.4 -1.4,0 -2.6,0.5 -3.6,1.6 -1,1.1 -1.4,2.4 -1.4,3.9 l 0,8.6 -1.3,0 0,-15 1.3,0 0,2.7 0.1,0 c 1.1,-2.1 2.8,-3.1 5.1,-3.1 1.6,0 2.9,0.5 3.7,1.6 0.9,1.1 1.3,2.6 1.3,4.6 l 0,9.1 -1.3,0 z"
       id="path21"
       inkscape:connector-curvature="0"
       style="display:inline" /><path
       class="st1"
       d="m 508,238.1 c -0.3,0 -0.6,-0.1 -0.8,-0.3 -0.2,-0.2 -0.3,-0.5 -0.3,-0.8 0,-0.3 0.1,-0.6 0.3,-0.8 0.2,-0.2 0.5,-0.3 0.8,-0.3 0.3,0 0.6,0.1 0.8,0.3 0.2,0.2 0.3,0.5 0.3,0.8 0,0.3 -0.1,0.6 -0.3,0.8 -0.2,0.1 -0.5,0.3 -0.8,0.3 z m -0.7,18.7 0,-15 1.3,0 0,15 -1.3,0 z"
       id="path23"
       inkscape:connector-curvature="0"
       style="display:inline" /><path
       class="st1"
       d="m 527,255.6 9.7,0 0,1.2 -11.9,0 0,-0.5 10,-13.3 -9.2,0 0,-1.2 11.5,0 0,0.4 -10.1,13.4 z"
       id="path25"
       inkscape:connector-curvature="0"
       style="display:inline" /><path
       class="st1"
       d="m 553.5,249.4 c 0,2.1 0.5,3.7 1.4,4.8 1,1.2 2.3,1.7 3.9,1.7 1.7,0 3.3,-0.6 4.9,-1.9 l 0,1.4 c -1.6,1.1 -3.3,1.7 -5.2,1.7 -1.9,0 -3.5,-0.7 -4.7,-2.1 -1.2,-1.4 -1.8,-3.3 -1.8,-5.9 0,-2.2 0.6,-4 1.9,-5.5 1.2,-1.5 2.9,-2.2 4.9,-2.2 1.9,0 3.3,0.7 4.3,2 1,1.3 1.5,3.1 1.5,5.4 l 0,0.6 -11.1,0 z m 9.7,-1.2 c -0.1,-1.7 -0.5,-3.1 -1.2,-4 -0.8,-1 -1.8,-1.4 -3.2,-1.4 -1.4,0 -2.6,0.5 -3.5,1.4 -0.9,0.9 -1.5,2.3 -1.7,4 l 9.6,0 z"
       id="path27"
       inkscape:connector-curvature="0"
       style="display:inline" /></g><g
     id="g4165"
     transform="matrix(1.2521434,0,0,1.2521434,0,1.2207031e-5)"><g
       transform="translate(-340.1,-241.6)"
       id="g29"><path
         style="fill:#3e3d40"
         inkscape:connector-curvature="0"
         id="path31"
         d="m 563.9,274.4 -20,0 -21.1,32.4 c 0,0 0.1,0 -9,-13.8 -9.1,-13.8 -20.3,-18.6 -37.2,-18.6 -14.2,0 -49.9,0 -49.9,0 l 0,95.5 16.3,0 0,-39.9 34,0 0,-13.6 -34,0 0,-28.4 c 0,0 23.3,0 33.6,0 10.3,0 16.2,3.4 23.1,13.8 6.8,10.4 13.2,20.1 13.2,20.1 l -31.3,47.9 19.6,0 21.6,-32.9 21.6,32.9 19.6,0 -31.3,-47.8 31.2,-47.6 z"
         class="st2" /></g><g
       transform="translate(-340.1,-241.6)"
       id="g33"><path
         style="fill:#3e3d40"
         inkscape:connector-curvature="0"
         id="path35"
         d="m 341.3,256.3 0,-1.6 c 0.5,0.4 1.1,0.8 1.8,1 0.7,0.2 1.3,0.4 1.9,0.4 2.4,0 3.5,-1 3.5,-2.9 0,-0.7 -0.3,-1.2 -0.8,-1.7 -0.5,-0.5 -1.4,-1 -2.5,-1.5 -1.4,-0.6 -2.4,-1.3 -3,-1.9 -0.6,-0.6 -0.9,-1.5 -0.9,-2.4 0,-1.2 0.5,-2.2 1.4,-3 0.9,-0.8 2.1,-1.1 3.4,-1.1 1.3,0 2.4,0.3 3.3,0.8 l 0,1.5 c -1.1,-0.7 -2.3,-1.1 -3.5,-1.1 -1,0 -1.8,0.3 -2.4,0.8 -0.6,0.5 -0.9,1.2 -0.9,2 0,0.7 0.2,1.3 0.6,1.7 0.4,0.4 1.2,1 2.5,1.5 1.6,0.7 2.6,1.4 3.2,2 0.6,0.6 0.9,1.4 0.9,2.4 0,1.2 -0.4,2.2 -1.3,3 -0.9,0.8 -2.1,1.2 -3.7,1.2 -1.3,-0.1 -2.5,-0.4 -3.5,-1.1 z"
         class="st2" /><path
         style="fill:#3e3d40"
         inkscape:connector-curvature="0"
         id="path37"
         d="m 451.1,257 -1.2,0 -5.8,-15 1.5,0 4.5,11.9 c 0.2,0.6 0.4,1.1 0.5,1.6 l 0.1,0 c 0.1,-0.6 0.3,-1.1 0.4,-1.5 l 4.6,-12 1.5,0 -6.1,15 z"
         class="st2" /><path
         style="fill:#3e3d40"
         inkscape:connector-curvature="0"
         id="path39"
         d="m 564.2,255.9 c 0,2.8 -0.6,4.9 -1.8,6.2 -1.2,1.3 -3.1,2 -5.7,2 -1.4,0 -2.9,-0.4 -4.5,-1.1 l 0,-1.4 c 1.6,0.9 3.1,1.3 4.5,1.3 4.1,0 6.2,-2.2 6.2,-6.6 l 0,-1.9 -0.1,0 c -1.2,2 -3,3.1 -5.4,3.1 -1.8,0 -3.4,-0.7 -4.5,-2 -1.1,-1.3 -1.8,-3.2 -1.8,-5.6 0,-2.4 0.6,-4.3 1.9,-5.9 1.3,-1.6 2.9,-2.3 5,-2.3 2.2,0 3.8,0.9 4.8,2.7 l 0.1,0 0,-2.4 1.3,0 0,13.9 z m -1.4,-8.2 c 0,-1.3 -0.4,-2.5 -1.3,-3.4 -0.9,-1 -2.1,-1.5 -3.5,-1.5 -1.7,0 -3,0.6 -4,1.9 -1,1.3 -1.5,2.9 -1.5,4.9 0,2.1 0.5,3.6 1.4,4.8 0.9,1.1 2.1,1.7 3.7,1.7 1.6,0 2.9,-0.5 3.9,-1.6 1,-1.1 1.4,-2.3 1.4,-3.8 l 0,-3 z"
         class="st2" /></g><circle
       style="fill:#acc82e"
       id="circle41"
       r="6.9000001"
       cy="42.100021"
       cx="6.9000001"
       class="st3" /><circle
       style="fill:#eb7408"
       id="circle43"
       r="6.9000001"
       cy="42.100021"
       cx="35.60001"
       class="st4" /><circle
       style="fill:#008dc9"
       id="circle45"
       r="6.9000001"
       cy="42.100021"
       cx="64.199989"
       class="st5" /></g></svg>