<?xml version="1.0" encoding="UTF-8" standalone="no"?>
<!--
  ~ Copyright 2015 - 2017 Xyanid
  ~
  ~ Licensed under the Apache License, Version 2.0 (the "License"); you may not use this file except in compliance with the License.
  ~ You may obtain a copy of the License at
  ~
  ~  http://www.apache.org/licenses/LICENSE-2.0
  ~
  ~ Unless required by applicable law or agreed to in writing, software distributed under the License is distributed on an "AS IS" BASIS,
  ~ WITHOUT WARRANTIES OR CONDITIONS OF ANY KIND, either express or implied.
  ~ See the License for the specific language governing permissions and limitations under the License.
  -->

<!-- Generator: Adobe Illustrator 19.1.0, SVG Export Plug-In . SVG Version: 6.00 Build 0)  -->

<svg
   xmlns:dc="http://purl.org/dc/elements/1.1/"
   xmlns:cc="http://creativecommons.org/ns#"
   xmlns:rdf="http://www.w3.org/1999/02/22-rdf-syntax-ns#"
   xmlns="http://www.w3.org/2000/svg"
   xmlns:sodipodi="http://sodipodi.sourceforge.net/DTD/sodipodi-0.dtd"
   xmlns:inkscape="http://www.inkscape.org/namespaces/inkscape"
   version="1.1"
   id="Ebene_1"
   x="0px"
   y="0px"
   viewBox="0 0 841.9 595.3"
   style="enable-background:new 0 0 841.9 595.3;"
   xml:space="preserve"
   inkscape:version="0.91 r13725"
   sodipodi:docname="svgFX.svg"><metadata
     id="metadata78"><rdf:RDF><cc:Work
         rdf:about=""><dc:format>image/svg+xml</dc:format><dc:type
           rdf:resource="http://purl.org/dc/dcmitype/StillImage" /></cc:Work></rdf:RDF></metadata><defs
     id="defs76" /><sodipodi:namedview
     pagecolor="#ffffff"
     bordercolor="#666666"
     borderopacity="1"
     objecttolerance="10"
     gridtolerance="10"
     guidetolerance="10"
     inkscape:pageopacity="0"
     inkscape:pageshadow="2"
     inkscape:window-width="1920"
     inkscape:window-height="1017"
     id="namedview74"
     showgrid="false"
     inkscape:zoom="1.9552733"
     inkscape:cx="404.9655"
     inkscape:cy="284.21253"
     inkscape:window-x="-8"
     inkscape:window-y="-8"
     inkscape:window-maximized="1"
     inkscape:current-layer="Ebene_1" /><style
     type="text/css"
     id="style3">
	.st0{fill:url(#SVGID_1_);}
	.st1{fill:url(#SVGID_2_);}
	.st2{fill:url(#SVGID_3_);}
</style><g
     id="g5"
     style="fill:#000000;fill-opacity:1"
     inkscape:export-xdpi="500"
     inkscape:export-ydpi="500"><path
       d="M533.1,274.4h-20l-21.1,32.4c0,0,0.1,0-9-13.8c-9.1-13.8-20.3-18.6-37.2-18.6c-14.2,0-49.9,0-49.9,0v95.5h16.3v-39.9h34   v-13.6h-34V288c0,0,23.3,0,33.6,0c10.3,0,16.2,3.4,23.1,13.8C475.6,312.2,482,322,482,322l-31.3,47.9h19.6l21.6-32.9l21.6,32.9   h19.6L501.8,322L533.1,274.4z"
       id="path7"
       style="fill:#000000;fill-opacity:1" /></g><g
     id="g9"
     inkscape:export-xdpi="500"
     inkscape:export-ydpi="500"><linearGradient
       id="SVGID_1_"
       gradientUnits="userSpaceOnUse"
       x1="337.478"
       y1="283.7131"
       x2="352.1401"
       y2="283.7131"><stop
         offset="0"
         style="stop-color:#E6441F"
         id="stop12" /><stop
         offset="0.3567"
         style="stop-color:#E6401F"
         id="stop14" /><stop
         offset="0.6431"
         style="stop-color:#E53420"
         id="stop16" /><stop
         offset="0.9043"
         style="stop-color:#E31620"
         id="stop18" /><stop
         offset="1"
         style="stop-color:#E20020"
         id="stop20" /></linearGradient><path
       class="st0"
       d="M351.6,286.5c0.4-0.8,0.5-1.7,0.5-2.7c0-1-0.2-1.9-0.5-2.7c-0.4-0.9-0.9-1.6-1.5-2.2c-0.6-0.6-1.4-1.1-2.3-1.5   c-0.9-0.4-1.8-0.6-2.9-0.6c-1,0-2,0.2-2.9,0.5c-0.9,0.4-1.7,0.9-2.4,1.5c-0.7,0.6-1.2,1.3-1.6,2.2c-0.4,0.8-0.6,1.7-0.6,2.8   c0,0.9,0.2,1.8,0.6,2.6c0.4,0.8,0.9,1.6,1.6,2.2c0.7,0.6,1.4,1.2,2.3,1.5c1.8,0.8,4.2,0.7,5.9,0c0.9-0.4,1.6-0.8,2.3-1.4   C350.7,288.1,351.2,287.3,351.6,286.5z"
       id="path22" /><linearGradient
       id="SVGID_2_"
       gradientUnits="userSpaceOnUse"
       x1="308.8364"
       y1="283.7131"
       x2="323.4965"
       y2="283.7131"><stop
         offset="0"
         style="stop-color:#79B530"
         id="stop25" /><stop
         offset="0.2375"
         style="stop-color:#75B431"
         id="stop27" /><stop
         offset="0.4281"
         style="stop-color:#69B033"
         id="stop29" /><stop
         offset="0.6026"
         style="stop-color:#4FAA37"
         id="stop31" /><stop
         offset="0.7674"
         style="stop-color:#09A13A"
         id="stop33" /><stop
         offset="0.9239"
         style="stop-color:#00973E"
         id="stop35" /><stop
         offset="1"
         style="stop-color:#009140"
         id="stop37" /></linearGradient><path
       class="st1"
       d="M323,286.5c0.4-0.9,0.5-1.7,0.5-2.7c0-1-0.2-1.9-0.5-2.7c-0.4-0.9-0.9-1.6-1.5-2.2c-0.6-0.6-1.4-1.1-2.3-1.5   c-0.9-0.4-1.8-0.6-2.9-0.6c-1,0-2,0.2-2.9,0.5c-0.9,0.4-1.7,0.9-2.4,1.5c-0.7,0.6-1.2,1.3-1.6,2.2c-0.4,0.8-0.6,1.7-0.6,2.8   c0,0.9,0.2,1.8,0.6,2.6c0.4,0.8,0.9,1.6,1.6,2.2c0.7,0.6,1.4,1.2,2.3,1.5c1.8,0.8,4.2,0.7,5.9,0c0.9-0.4,1.6-0.8,2.3-1.4   C322.1,288.1,322.6,287.3,323,286.5z"
       id="path39" /><linearGradient
       id="SVGID_3_"
       gradientUnits="userSpaceOnUse"
       x1="366.6567"
       y1="283.7116"
       x2="381.3227"
       y2="283.7116"><stop
         offset="0"
         style="stop-color:#009EE0"
         id="stop42" /><stop
         offset="0.2675"
         style="stop-color:#009CDE"
         id="stop44" /><stop
         offset="0.4824"
         style="stop-color:#0098D8"
         id="stop46" /><stop
         offset="0.679"
         style="stop-color:#0091CE"
         id="stop48" /><stop
         offset="0.8635"
         style="stop-color:#0086BF"
         id="stop50" /><stop
         offset="1"
         style="stop-color:#007CB0"
         id="stop52" /></linearGradient><path
       class="st2"
       d="M380.8,286.5c0.4-0.9,0.5-1.7,0.5-2.7c0-1-0.2-1.9-0.5-2.7c-0.4-0.9-0.9-1.6-1.5-2.2c-0.6-0.6-1.4-1.1-2.3-1.5   c-0.9-0.4-1.8-0.6-2.9-0.6c-1.1,0-2,0.2-2.9,0.5c-0.9,0.4-1.7,0.9-2.4,1.5c-0.7,0.6-1.2,1.3-1.6,2.2c-0.4,0.8-0.6,1.7-0.6,2.8   c0,0.9,0.2,1.8,0.6,2.6c0.4,0.8,0.9,1.6,1.6,2.2c0.7,0.6,1.4,1.1,2.3,1.5c1.8,0.8,4.2,0.7,5.9,0c0.9-0.4,1.7-0.8,2.3-1.4   C379.9,288,380.4,287.3,380.8,286.5z"
       id="path54" /></g><path
     style="fill:#000000;fill-opacity:1"
     inkscape:connector-curvature="0"
     id="path35"
     d="m 311.2,256.20696 0,-1.58987 c 0.49683,0.39747 1.09304,0.79494 1.78861,0.99367 0.69557,0.19874 1.29177,0.39746 1.88797,0.39746 2.38482,0 3.47785,-0.99366 3.47785,-2.88164 0,-0.69557 -0.2981,-1.1924 -0.79493,-1.68924 -0.49684,-0.49684 -1.39114,-0.99367 -2.48418,-1.49051 -1.39114,-0.5962 -2.38481,-1.29177 -2.98102,-1.88797 -0.59619,-0.5962 -0.8943,-1.49051 -0.8943,-2.38481 0,-1.19241 0.49683,-2.18608 1.39114,-2.98102 0.8943,-0.79493 2.08671,-1.09303 3.37848,-1.09303 1.29178,0 2.38481,0.2981 3.27912,0.79493 l 0,1.49051 c -1.09304,-0.69557 -2.28545,-1.09304 -3.47785,-1.09304 -0.99367,0 -1.78861,0.2981 -2.38481,0.79494 -0.59621,0.49683 -0.8943,1.1924 -0.8943,1.98734 0,0.69557 0.19873,1.29178 0.59619,1.68924 0.39747,0.39747 1.19241,0.99368 2.48418,1.49051 1.58988,0.69557 2.58355,1.39114 3.17975,1.98734 0.59621,0.5962 0.89431,1.39114 0.89431,2.38481 0,1.19241 -0.39747,2.18608 -1.29178,2.98102 -0.8943,0.79493 -2.08671,1.1924 -3.67658,1.1924 -1.29177,-0.0994 -2.48417,-0.39747 -3.47785,-1.09304 z"
     class="st2"
     inkscape:export-xdpi="500"
     inkscape:export-ydpi="500" /><path
     style="fill:#000000;fill-opacity:1"
     inkscape:connector-curvature="0"
     id="path37"
     d="m 426.37134,257.3 -1.19239,0 -5.76321,-14.90484 1.49049,0 4.47145,11.82451 c 0.19873,0.5962 0.39746,1.09302 0.49683,1.58985 l 0.0994,0 c 0.0994,-0.5962 0.2981,-1.09302 0.39747,-1.49049 l 4.57082,-11.92387 1.49048,0 -6.0613,14.90484 z"
     class="st2"
     inkscape:export-xdpi="500"
     inkscape:export-ydpi="500" /><path
     style="fill:#000000;fill-opacity:1"
     inkscape:connector-curvature="0"
     id="path39-6"
     d="m 533.4,255.51003 c 0,2.78226 -0.5962,4.86895 -1.7886,6.16072 -1.19239,1.29176 -3.08036,1.98732 -5.66389,1.98732 -1.39112,0 -2.88162,-0.39747 -4.47148,-1.09303 l 0,-1.39113 c 1.58986,0.8943 3.08036,1.29177 4.47148,1.29177 4.07403,0 6.16072,-2.18607 6.16072,-6.55819 l 0,-1.88796 -0.0994,0 c -1.1924,1.98733 -2.98099,3.08036 -5.36579,3.08036 -1.7886,0 -3.37846,-0.69556 -4.47148,-1.98733 -1.09304,-1.29176 -1.7886,-3.17972 -1.7886,-5.56451 0,-2.3848 0.59619,-4.27276 1.88796,-5.86262 1.29177,-1.58986 2.88163,-2.28543 4.96832,-2.28543 2.18606,0 3.77592,0.8943 4.76959,2.6829 l 0.0994,0 0,-2.3848 1.29177,0 0,13.81193 z m -1.39113,-8.14804 c 0,-1.29177 -0.39747,-2.48417 -1.29177,-3.37846 -0.8943,-0.99366 -2.08669,-1.4905 -3.47782,-1.4905 -1.68923,0 -2.98099,0.5962 -3.97466,1.88796 -0.99366,1.29177 -1.49049,2.88163 -1.49049,4.86895 0,2.0867 0.49683,3.5772 1.39113,4.76959 0.8943,1.09303 2.08669,1.68923 3.67655,1.68923 1.58987,0 2.88163,-0.49683 3.87529,-1.58986 0.99366,-1.09303 1.39113,-2.28542 1.39113,-3.77592 l 0,-2.98099 z"
     class="st2"
     inkscape:export-xdpi="500"
     inkscape:export-ydpi="500" /></svg>